<svg xmlns="http://www.w3.org/2000/svg" viewBox="0 0 200 200">
  <defs>
    <linearGradient id="gradGreenDark" x1="0%" y1="100%" x2="100%" y2="0%">
      <stop offset="0%" style="stop-color:#1a5220;stop-opacity:1" />
      <stop offset="100%" style="stop-color:#41a336;stop-opacity:1" />
    </linearGradient>
    <linearGradient id="gradGreenLight" x1="0%" y1="100%" x2="100%" y2="0%">
      <stop offset="0%" style="stop-color:#41a336;stop-opacity:1" />
      <stop offset="100%" style="stop-color:#85d65c;stop-opacity:1" />
    </linearGradient>
    <linearGradient id="gradOrangeBase" x1="0%" y1="100%" x2="0%" y2="0%">
      <stop offset="0%" style="stop-color:#d94f09;stop-opacity:1" />
      <stop offset="100%" style="stop-color:#ff8c00;stop-opacity:1" />
    </linearGradient>
    <linearGradient id="gradOrangeTip" x1="0%" y1="100%" x2="0%" y2="0%">
      <stop offset="0%" style="stop-color:#ff8c00;stop-opacity:1" />
      <stop offset="100%" style="stop-color:#ffb700;stop-opacity:1" />
    </linearGradient>
  </defs>

  <circle cx="100" cy="100" r="92" stroke="#777777" stroke-width="4" fill="none" />

  <path d="M100,180 C80,175 50,150 45,110 C40,70 60,50 80,60 C70,90 80,120 100,140 Z" fill="url(#gradGreenDark)" />
  <path d="M95,170 C75,160 55,130 55,95 C55,75 65,65 75,65 C65,95 75,125 95,145 Z" fill="url(#gradGreenLight)" />
  
  <path d="M100,180 C120,175 150,150 155,110 C160,70 140,50 120,60 C130,90 120,120 100,140 Z" fill="url(#gradGreenDark)" />
  <path d="M105,170 C125,160 145,130 145,95 C145,75 135,65 125,65 C135,95 125,125 105,145 Z" fill="url(#gradGreenLight)" />

  <path d="M100,135 C115,115 130,95 125,65 C120,45 110,40 100,55 C90,40 80,45 75,65 C70,95 85,115 100,135 Z" fill="url(#gradOrangeBase)" />
  <path d="M100,125 C108,105 115,85 110,55 C105,35 100,20 100,20 C100,20 95,35 90,55 C85,85 92,105 100,125 Z" fill="url(#gradOrangeTip)" />
</svg>